<?xml version="1.0" standalone="no"?>
<!DOCTYPE svg PUBLIC "-//W3C//DTD SVG 20010904//EN"
 "http://www.w3.org/TR/2001/REC-SVG-20010904/DTD/svg10.dtd">
<svg version="1.0" xmlns="http://www.w3.org/2000/svg"
 width="682.000000pt" height="1024.000000pt" viewBox="0 0 682.000000 1024.000000"
 preserveAspectRatio="xMidYMid meet">

<g transform="translate(0.000000,1024.000000) scale(0.100000,-0.100000)"
fill="#000000" stroke="none">
<path d="M3140 7195 c-111 -15 -191 -35 -284 -70 -400 -151 -721 -500 -821
-895 -100 -388 -25 -766 212 -1081 72 -96 213 -237 290 -288 21 -14 54 -38 73
-52 19 -15 89 -55 154 -89 102 -53 124 -61 155 -55 23 3 31 2 23 -3 -9 -6 5
-14 47 -24 34 -9 61 -14 61 -11 0 5 -60 32 -195 89 -238 99 -487 321 -580 516
-18 37 -36 64 -40 60 -5 -4 -5 1 -2 11 4 9 2 17 -2 17 -5 0 -17 20 -28 45 -10
25 -21 45 -25 45 -5 0 -8 10 -8 23 0 13 -3 27 -7 31 -4 4 -9 19 -11 34 -2 14
-8 32 -14 39 -6 7 -8 13 -5 13 3 0 1 15 -4 33 -6 17 -12 47 -15 66 -2 19 -9
52 -14 75 -14 62 -5 350 13 431 34 149 100 307 178 422 65 97 183 225 266 290
18 14 30 30 26 36 -3 6 -1 7 6 3 14 -9 63 28 53 39 -4 5 -2 5 4 2 15 -8 56 22
48 35 -4 7 -2 8 5 4 7 -5 28 3 50 17 93 62 246 124 364 148 28 6 108 15 177
19 l125 8 -135 -3 c-100 -2 -156 -9 -215 -25 -44 -12 -87 -23 -95 -24 -8 -2
-33 -11 -55 -21 -22 -10 -51 -19 -64 -20 -13 0 -28 -8 -35 -16 -11 -15 -42
-32 -61 -34 -20 -1 -35 -17 -28 -28 4 -7 -2 -5 -12 3 -10 8 -16 10 -12 3 4 -7
-5 -15 -23 -22 -17 -5 -30 -15 -30 -20 0 -6 -7 -8 -15 -5 -9 4 -15 0 -15 -10
0 -9 -3 -15 -7 -14 -17 4 -53 -14 -47 -24 4 -6 3 -8 -3 -5 -10 6 -47 -18 -90
-60 -13 -13 -26 -23 -28 -23 -13 0 -113 -115 -108 -123 3 -6 1 -7 -5 -3 -7 4
-12 2 -12 -4 0 -6 -4 -9 -8 -6 -12 7 -44 -34 -38 -49 3 -9 0 -12 -10 -8 -7 3
-14 8 -14 12 0 4 35 47 78 96 116 133 221 218 364 294 104 56 256 114 284 108
13 -2 21 -1 19 4 -12 19 119 33 305 33 183 0 200 -2 284 -27 49 -15 91 -26 93
-23 10 10 -137 48 -237 61 -125 17 -174 17 -300 0z m-295 -125 c-3 -5 -12 -10
-18 -10 -7 0 -6 4 3 10 19 12 23 12 15 0z m-587 -444 c-2 0 -14 -10 -27 -21
-16 -13 -21 -15 -16 -5 16 29 27 40 37 34 5 -3 8 -7 6 -8z m-58 -65 c-5 -11
-15 -23 -22 -27 -7 -5 -8 -2 -3 7 21 37 44 55 25 20z m-37 -56 c-3 -9 -8 -14
-10 -11 -3 3 -2 9 2 15 9 16 15 13 8 -4z m-22 -48 c-10 -9 -11 -8 -5 6 3 10 9
15 12 12 3 -3 0 -11 -7 -18z m410 -1584 c13 -16 12 -17 -3 -4 -17 13 -22 21
-14 21 2 0 10 -8 17 -17z m64 -43 c10 -11 16 -20 13 -20 -3 0 -13 9 -23 20
-10 11 -16 20 -13 20 3 0 13 -9 23 -20z m293 -158 c-8 -4 -218 94 -218 101 0
3 51 -18 113 -47 63 -28 110 -52 105 -54z"/>
<path d="M3488 7155 c40 -8 108 -29 152 -48 85 -37 102 -34 23 3 -60 29 -177
60 -217 59 -18 -1 1 -7 42 -14z"/>
<path d="M3080 7124 c-355 -91 -665 -379 -780 -721 -36 -109 -62 -271 -57
-357 3 -61 3 -61 5 14 2 53 5 71 12 60 9 -13 10 -13 10 1 0 8 7 24 16 35 8 10
13 14 10 8 -8 -17 26 -27 36 -12 4 8 8 -12 9 -47 l2 -60 9 75 c5 41 7 85 5 98
-2 12 -1 22 4 22 4 0 10 19 14 43 18 106 77 251 150 367 230 367 656 547 1014
428 206 -68 378 -254 466 -505 14 -38 24 -53 37 -53 17 0 18 15 16 267 -3 250
-4 268 -21 271 -10 2 -27 -4 -37 -13 -40 -36 -79 -31 -193 29 -58 31 -110 56
-114 56 -4 -1 8 -9 27 -20 19 -11 28 -19 20 -20 -13 0 -13 -1 0 -10 13 -9 13
-10 0 -10 -11 -1 -10 -4 4 -15 11 -8 25 -15 30 -15 6 0 5 4 -3 9 -14 9 -25 41
-14 41 2 0 31 -16 64 -35 80 -46 124 -53 175 -26 21 12 42 21 46 21 16 0 7
-48 -12 -65 -21 -19 -25 -19 -130 10 -18 5 -12 -2 20 -24 50 -35 96 -40 116
-13 11 14 13 -18 14 -205 0 -123 -2 -223 -4 -223 -3 0 -10 26 -16 58 -48 245
-198 428 -420 513 -100 39 -161 48 -300 48 -110 0 -153 -5 -230 -25z m-809
-957 c-10 -9 -11 -8 -5 6 3 10 9 15 12 12 3 -3 0 -11 -7 -18z"/>
<path d="M2237 6451 c-15 -27 -27 -53 -27 -57 0 -5 14 15 30 45 17 30 29 56
27 58 -2 2 -16 -19 -30 -46z"/>
<path d="M2180 6323 c-56 -148 -63 -197 -64 -403 -1 -194 12 -306 46 -388 6
-15 12 -31 12 -37 5 -39 19 -74 28 -69 7 4 8 -2 3 -17 -4 -13 -4 -21 0 -16 5
4 31 -35 58 -85 102 -189 278 -371 466 -481 91 -53 251 -131 257 -125 3 3 -18
48 -47 99 -43 80 -71 113 -179 219 -130 128 -183 193 -240 293 -17 31 -34 57
-36 57 -10 0 47 -99 90 -157 25 -34 48 -75 50 -90 5 -26 4 -27 -9 -9 -8 11
-15 23 -15 28 0 4 -7 8 -16 8 -9 0 -12 5 -8 12 4 6 3 8 -3 5 -13 -8 -56 37
-46 48 5 4 2 5 -5 1 -10 -6 -11 -11 0 -24 30 -40 51 -61 59 -57 4 3 11 0 15
-6 4 -8 3 -9 -4 -5 -7 4 -12 3 -12 -2 0 -17 120 -123 131 -116 8 4 9 3 5 -4
-4 -7 23 -35 65 -69 40 -32 89 -74 109 -93 20 -19 24 -26 10 -14 -14 11 -57
43 -95 72 -39 28 -79 60 -89 71 -11 12 -23 21 -27 21 -12 0 -90 81 -154 160
-60 75 -131 182 -165 250 -12 25 -28 48 -34 52 -6 4 -8 8 -4 8 4 0 -2 21 -13
48 -33 76 -69 209 -84 314 -25 165 -19 317 19 513 3 17 -1 8 -10 -20 -18 -62
-29 -81 -44 -77 -7 2 -9 -5 -5 -20 5 -20 4 -21 -5 -5 -13 20 -4 41 12 31 7 -5
8 -2 4 5 -5 7 -14 10 -22 7 -21 -8 -16 16 19 91 6 13 8 26 5 29 -3 3 -16 -21
-28 -53z m37 -135 c-3 -8 -6 -5 -6 6 -1 11 2 17 5 13 3 -3 4 -12 1 -19z"/>
<path d="M3192 6163 c3 -24 9 -29 47 -35 55 -9 86 -29 108 -71 17 -29 18 -81
21 -664 l3 -632 -28 -4 c-15 -2 26 -4 92 -4 77 0 105 2 78 6 -24 4 -45 10 -49
13 -10 11 -24 145 -28 286 -3 86 -1 131 4 122 8 -13 10 -12 10 3 0 9 -6 17
-12 17 -9 0 -10 2 -2 8 10 6 23 59 29 117 6 53 17 67 46 61 25 -5 29 -2 31 17
1 12 4 -12 8 -53 4 -42 7 71 8 253 1 215 -2 343 -9 373 -13 50 -60 97 -93 92
-18 -3 -22 -12 -27 -68 -4 -36 -7 -329 -8 -652 -1 -385 -4 -588 -11 -588 -11
0 -12 21 -8 745 2 635 2 607 6 595 2 -5 15 -10 28 -10 14 0 34 -5 45 -10 22
-12 25 -5 7 13 -17 16 -148 61 -155 53 -3 -3 -12 -1 -19 5 -8 6 -20 9 -29 6
-8 -4 -17 -2 -20 3 -4 6 -15 10 -26 10 -10 0 -19 5 -19 10 0 6 -7 10 -16 10
-11 0 -14 -8 -12 -27z"/>
<path d="M3958 6183 l722 -3 0 -26 c0 -15 -14 -53 -30 -86 -27 -52 -28 -58
-10 -48 11 6 18 15 15 20 -3 5 -1 11 4 14 5 3 12 -1 15 -10 9 -23 7 -36 -4
-29 -7 4 -7 -3 0 -20 6 -15 10 -44 10 -66 0 -24 -4 -38 -10 -34 -7 4 -7 -3 0
-20 6 -15 10 -41 11 -58 0 -18 3 -40 7 -49 7 -18 4 388 -3 410 -3 9 -156 11
-727 10 l-723 -3 723 -2z"/>
<path d="M3852 6143 c70 -2 187 -2 260 0 73 1 16 3 -127 3 -143 0 -203 -2
-133 -3z"/>
<path d="M3765 6121 c-4 -7 -15 -9 -25 -6 -10 3 -25 -1 -33 -9 -8 -8 -17 -13
-20 -10 -9 10 -64 -67 -76 -108 -7 -22 -10 -42 -8 -45 3 -2 8 9 12 26 10 45
20 46 59 5 l36 -37 0 -404 c0 -221 0 -406 -1 -410 -1 -14 46 -21 151 -22 128
-1 293 14 321 30 15 8 19 8 15 0 -4 -6 -4 -11 -1 -11 4 0 16 5 27 11 15 8 19
8 14 0 -8 -13 5 -15 20 -3 5 4 -2 -3 -16 -15 -31 -29 -22 -29 36 -2 73 35 128
126 142 235 4 32 12 59 19 61 9 3 12 -83 13 -357 0 -210 -3 -359 -8 -356 -5 3
-13 34 -16 68 -4 34 -10 67 -14 73 -4 5 -7 17 -9 25 -5 37 -36 99 -61 122 -45
43 -87 48 -395 48 -322 0 -339 -3 -351 -61 -3 -17 -6 -74 -6 -126 0 -94 0 -95
23 -90 12 4 41 9 65 13 l42 7 0 88 c0 48 4 100 10 114 l10 26 137 -1 c180 -2
285 -16 342 -45 80 -40 160 -141 191 -237 8 -27 17 -38 31 -38 18 0 19 12 19
370 0 361 0 370 -20 370 -14 0 -27 -16 -45 -54 -36 -77 -133 -179 -203 -213
-57 -28 -58 -28 -262 -28 l-205 0 0 468 c0 457 1 469 20 484 17 13 54 14 255
10 216 -5 242 -8 316 -31 167 -53 288 -167 338 -318 6 -19 31 -24 41 -8 3 6
-1 7 -9 4 -12 -5 -16 1 -16 22 0 80 -60 215 -115 261 -39 34 -120 71 -167 77
-21 2 -41 7 -46 10 -30 19 -566 34 -577 17z m-115 -1215 c0 -7 11 -25 25 -40
42 -45 29 -76 -38 -94 l-37 -10 0 79 c0 78 0 79 25 79 14 0 25 -6 25 -14z"/>
<path d="M2341 5904 c0 -32 4 -79 9 -104 5 -30 6 -12 3 55 -6 111 -13 141 -12
49z"/>
<path d="M3095 5862 c-48 -29 -137 -126 -177 -193 -64 -105 -84 -264 -53 -409
7 -35 11 -68 9 -72 -3 -4 4 -44 16 -89 11 -45 20 -89 20 -97 0 -8 12 -40 26
-70 14 -30 34 -73 45 -96 23 -50 63 -124 83 -151 8 -11 28 -38 45 -60 124
-162 167 -246 191 -373 10 -54 3 -103 -11 -80 -7 10 -9 8 -10 -7 0 -11 -9 5
-19 35 -23 66 -23 63 -9 54 15 -9 3 27 -33 100 -59 118 -173 206 -265 206 -49
0 -101 -19 -122 -43 -12 -15 -10 -17 13 -17 41 0 91 -25 112 -55 46 -66 91
-107 164 -150 72 -42 128 -92 131 -116 1 -5 2 -13 3 -18 0 -5 4 -13 9 -17 4
-4 8 -21 8 -38 l2 -31 7 35 c4 23 6 6 6 -52 -1 -47 -3 -84 -5 -82 -5 5 -31
-65 -31 -81 1 -16 40 35 40 51 0 8 7 26 16 39 23 35 30 177 14 281 -6 46 -16
82 -20 79 -5 -3 -6 5 -2 17 3 13 1 19 -5 15 -7 -4 -9 0 -7 11 3 9 -14 55 -37
101 -33 66 -39 85 -28 92 8 4 18 4 23 -1 13 -13 76 -13 76 0 0 10 -39 15 -87
12 -13 0 -23 3 -23 9 0 5 -7 9 -15 9 -12 0 -13 -4 -5 -19 16 -30 12 -33 -12
-8 -13 12 -23 26 -23 30 0 4 -7 12 -15 17 -8 5 -10 10 -5 10 6 0 -1 10 -15 21
-14 11 -18 18 -10 14 8 -4 4 3 -10 15 -14 12 -18 19 -10 15 10 -4 9 -2 -2 8
-10 8 -15 17 -11 20 3 4 2 7 -4 7 -5 0 -10 6 -11 13 -1 16 -46 141 -52 147 -5
4 0 97 14 286 4 52 62 128 111 144 18 6 41 20 50 30 10 11 24 20 31 20 7 0
-11 -23 -41 -51 -61 -58 -127 -175 -144 -257 -10 -50 -14 -180 -4 -137 9 36
18 35 21 -2 4 -61 17 -64 17 -3 0 52 4 65 41 117 69 99 71 111 4 24 l-35 -45
-12 43 c-11 39 -10 47 12 94 13 29 25 45 25 37 0 -13 2 -13 9 -1 5 8 7 21 3
29 -3 9 -1 13 5 9 6 -4 13 -2 15 4 2 6 14 2 29 -10 l26 -20 12 58 c6 33 20 70
31 84 26 32 25 37 -3 37 -31 0 -135 -63 -170 -103 -35 -39 -74 -114 -81 -153
-2 -16 -5 -59 -5 -96 -1 -38 -5 -68 -10 -68 -16 0 -35 102 -35 192 -1 96 -13
119 -19 36 -3 -51 -3 -51 -5 12 -1 62 19 262 33 325 4 17 3 25 -2 18 -6 -8
-12 0 -19 23 -10 31 -8 42 13 82 24 48 101 141 90 110 -10 -29 1 -21 18 13 9
17 19 29 21 26 3 -3 -8 -32 -25 -66 -38 -74 -38 -79 -4 -46 37 33 43 32 44
-12 1 -24 5 -9 11 37 5 41 18 94 28 118 10 23 18 42 17 42 -1 0 -15 -8 -32
-18z m-128 -934 c-3 -7 -5 -2 -5 12 0 14 2 19 5 13 2 -7 2 -19 0 -25z m88
-416 c56 -35 108 -89 139 -145 l28 -49 -74 75 c-61 62 -83 77 -137 95 -36 12
-85 22 -110 23 -45 1 -45 1 -16 11 49 16 99 25 115 19 8 -2 33 -16 55 -29z
m174 -8 c12 -20 20 -39 17 -41 -5 -5 -46 57 -46 70 0 15 8 6 29 -29z m-184
-103 c3 -6 -3 -9 -14 -8 -11 0 -17 5 -15 9 3 4 0 8 -5 8 -6 0 -11 5 -11 10 0
12 35 -3 45 -19z"/>
<path d="M2362 5720 c0 -14 2 -19 5 -12 2 6 2 18 0 25 -3 6 -5 1 -5 -13z"/>
<path d="M2371 5674 c0 -11 3 -14 6 -6 3 7 2 16 -1 19 -3 4 -6 -2 -5 -13z"/>
<path d="M3061 5614 c-1 -30 -36 -127 -56 -158 -16 -24 -18 -24 -35 -8 -9 9
-19 23 -22 31 -2 8 -10 -24 -18 -71 -21 -136 -8 -139 55 -13 61 122 89 196 82
222 -4 15 -5 14 -6 -3z"/>
<path d="M2391 5594 c0 -11 3 -14 6 -6 3 7 2 16 -1 19 -3 4 -6 -2 -5 -13z"/>
<path d="M2401 5565 c1 -19 18 -51 18 -35 0 8 -4 22 -9 30 -5 8 -9 11 -9 5z"/>
<path d="M2951 5514 c0 -11 3 -14 6 -6 3 7 2 16 -1 19 -3 4 -6 -2 -5 -13z"/>
<path d="M2441 5455 c0 -5 6 -21 14 -35 8 -14 14 -20 14 -15 0 6 -6 21 -14 35
-8 14 -14 21 -14 15z"/>
<path d="M2216 5357 c3 -10 9 -15 12 -12 3 3 0 11 -7 18 -10 9 -11 8 -5 -6z"/>
<path d="M2737 5294 c-13 -13 -7 -63 14 -119 11 -30 24 -55 28 -55 3 0 15 -14
25 -30 9 -17 22 -27 28 -24 6 4 8 2 5 -3 -4 -6 2 -22 13 -34 11 -13 19 -21 20
-18 1 25 -62 237 -78 258 -20 27 -43 37 -55 25z m57 -46 c8 -18 16 -51 20 -73
6 -37 5 -39 -9 -21 -8 11 -15 26 -15 33 0 7 -5 13 -10 13 -6 0 -4 -14 4 -35 8
-19 13 -35 10 -35 -7 0 -40 81 -47 118 -6 28 -4 32 14 32 13 0 24 -11 33 -32z"/>
<path d="M2761 5234 c0 -11 3 -14 6 -6 3 7 2 16 -1 19 -3 4 -6 -2 -5 -13z"/>
<path d="M2480 5246 c0 -2 8 -10 18 -17 15 -13 16 -12 3 4 -13 16 -21 21 -21
13z"/>
<path d="M3171 5184 c0 -11 3 -14 6 -6 3 7 2 16 -1 19 -3 4 -6 -2 -5 -13z"/>
<path d="M4173 5063 c9 -2 23 -2 30 0 6 3 -1 5 -18 5 -16 0 -22 -2 -12 -5z"/>
<path d="M3913 5053 c43 -2 110 -2 150 0 40 1 5 3 -78 3 -82 0 -115 -2 -72 -3z"/>
<path d="M4040 4923 c-8 -4 -28 -16 -45 -28 -39 -30 -143 -82 -178 -91 -15 -3
-29 -10 -32 -14 -3 -5 -15 -6 -28 -3 -16 3 -18 2 -8 -5 24 -17 -157 -52 -269
-52 -115 0 -287 31 -276 49 3 4 -12 13 -32 20 -20 8 -53 25 -72 38 l-35 25 33
-31 c17 -17 33 -34 34 -38 2 -14 57 -42 126 -65 97 -33 311 -33 426 0 104 30
204 77 296 140 41 28 76 49 78 48 4 -5 -73 -79 -100 -95 -277 -170 -508 -211
-725 -129 -30 11 -52 22 -50 25 3 2 22 -3 42 -11 21 -9 45 -16 54 -16 15 1
-134 60 -151 60 -19 0 -6 -34 25 -65 51 -51 126 -70 277 -69 82 0 152 6 203
18 43 10 81 16 83 13 7 -7 158 77 230 128 118 84 179 180 94 148z"/>
<path d="M3228 4773 c7 -3 16 -2 19 1 4 3 -2 6 -13 5 -11 0 -14 -3 -6 -6z"/>
<path d="M3278 4763 c7 -3 16 -2 19 1 4 3 -2 6 -13 5 -11 0 -14 -3 -6 -6z"/>
<path d="M3335 4679 c40 -8 192 -12 184 -5 -2 2 -53 6 -114 8 -69 3 -95 2 -70
-3z"/>
<path d="M3660 4622 c-25 -10 -50 -20 -56 -24 -7 -5 -12 -44 -13 -95 -2 -83
-1 -87 14 -65 31 42 41 23 49 -98 3 -30 10 -80 16 -110 25 -124 44 -270 41
-326 -1 -31 -35 -36 -68 -11 l-28 21 23 -26 c53 -59 222 -99 402 -96 l105 2
-100 5 c-96 6 -98 6 -45 13 30 4 91 8 135 8 114 0 245 17 300 39 52 20 55 21
55 9 0 -7 7 -3 15 8 15 19 15 19 8 0 -5 -16 -3 -18 12 -13 15 6 16 5 5 -8 -7
-9 -16 -12 -19 -8 -12 16 -30 12 -36 -8 -5 -14 -13 -19 -25 -16 -11 3 -20 1
-22 -5 -2 -5 -41 -13 -88 -17 -69 -7 -75 -9 -33 -10 87 -2 271 47 258 69 -3 5
0 12 6 16 8 4 9 3 5 -4 -24 -40 65 20 114 75 58 66 106 171 138 298 20 82 28
102 30 77 7 -75 -90 -370 -148 -451 -17 -22 -30 -42 -30 -44 0 -2 17 -9 38
-15 32 -10 92 -54 92 -68 0 -2 -19 8 -42 23 -38 25 -52 28 -124 28 -46 -1 -88
-6 -95 -12 -10 -8 -105 -12 -309 -12 -289 -1 -364 5 -512 38 -64 15 -209 12
-287 -5 -73 -16 -95 -12 -27 5 44 11 116 63 116 83 0 6 -6 6 -14 -1 -11 -9
-16 -9 -22 0 -5 8 -3 9 6 4 10 -6 12 -4 6 11 -17 40 -34 130 -30 154 6 37 15
142 15 167 -1 25 36 93 50 93 5 0 10 -69 12 -152 1 -88 4 -31 5 132 l2 285
-97 -3 c-54 -2 -105 -8 -113 -13 -13 -7 -12 -8 3 -9 16 0 17 -19 17 -252 0
-280 -9 -354 -48 -412 -42 -61 -71 -77 -161 -89 -65 -8 -82 -14 -87 -30 -11
-36 -105 -31 927 -42 l817 -8 11 21 c11 21 18 80 46 387 19 209 19 212 -5 218
-22 6 -37 -14 -64 -83 -34 -87 -100 -185 -180 -264 -44 -45 -79 -85 -78 -89 2
-5 -2 -6 -7 -3 -5 3 -35 -7 -68 -23 -75 -37 -142 -51 -283 -58 -209 -10 -392
24 -421 79 -5 10 -13 17 -17 14 -4 -2 -8 3 -8 12 -1 9 -6 52 -12 95 -7 44 -12
195 -12 343 0 145 -3 264 -7 263 -5 0 -28 -8 -53 -17z m-240 -378 c0 -331 -5
-362 -76 -432 -24 -24 -49 -40 -54 -37 -6 3 -10 2 -10 -3 0 -6 -8 -8 -19 -5
-10 3 -21 1 -24 -4 -7 -11 -147 -4 -147 8 0 5 30 9 68 9 93 0 141 16 182 59
58 60 62 90 60 400 -2 331 -3 321 10 301 6 -9 10 -132 10 -296z m1208 -278
c-7 -8 -15 -12 -17 -11 -5 6 10 25 20 25 5 0 4 -6 -3 -14z m-630 -143 c-10 -2
-28 -2 -40 0 -13 2 -5 4 17 4 22 1 32 -1 23 -4z m-641 -39 c-3 -3 -12 -4 -19
-1 -8 3 -5 6 6 6 11 1 17 -2 13 -5z m1470 -16 c-3 -8 -6 -5 -6 6 -1 11 2 17 5
13 3 -3 4 -12 1 -19z"/>
<path d="M3261 4235 c1 -19 18 -51 18 -35 0 8 -4 22 -9 30 -5 8 -9 11 -9 5z"/>
<path d="M3541 3975 c-1 -11 -4 -31 -6 -45 l-6 -25 11 25 c6 13 9 33 7 45 -4
19 -4 19 -6 0z"/>
</g>
</svg>
